<svg xmlns="http://www.w3.org/2000/svg" xmlns:xlink="http://www.w3.org/1999/xlink" viewBox="0 0 100 100"><defs><style>.cls-1{isolation:isolate;}.cls-2{fill:url(#_ÂÁ_Ï_ÌÌ_È_ËÂÌÚ_17);}.cls-3{fill:url(#_ÂÁ_Ï_ÌÌ_È_ËÂÌÚ_17-2);}.cls-4{mix-blend-mode:screen;fill:url(#_ÂÁ_Ï_ÌÌ_È_ËÂÌÚ_2);}.cls-5{fill:url(#_ÂÁ_Ï_ÌÌ_È_ËÂÌÚ_17-3);}.cls-6{fill:#d8e0eb;}</style><linearGradient id="_ÂÁ_Ï_ÌÌ_È_ËÂÌÚ_17" x1="84.72" y1="-13.54" x2="54.13" y2="41.81" gradientUnits="userSpaceOnUse"><stop offset="0" stop-color="#9caeb5"/><stop offset="1" stop-color="#32404d"/></linearGradient><linearGradient id="_ÂÁ_Ï_ÌÌ_È_ËÂÌÚ_17-2" x1="79.24" y1="-19.95" x2="-12.39" y2="191.6" gradientTransform="translate(0.12 -0.08) rotate(-0.02)" xlink:href="#_ÂÁ_Ï_ÌÌ_È_ËÂÌÚ_17"/><linearGradient id="_ÂÁ_Ï_ÌÌ_È_ËÂÌÚ_2" x1="66.74" y1="-17.11" x2="32.52" y2="111.76" gradientUnits="userSpaceOnUse"><stop offset="0" stop-color="#d8e7eb"/><stop offset="1"/></linearGradient><linearGradient id="_ÂÁ_Ï_ÌÌ_È_ËÂÌÚ_17-3" x1="52.53" y1="138.75" x2="49.74" y2="50.31" gradientTransform="translate(0.12 -0.08) rotate(-0.02)" xlink:href="#_ÂÁ_Ï_ÌÌ_È_ËÂÌÚ_17"/></defs><g class="cls-1"><g id="Layer_1" data-name="Layer 1"><path class="cls-2" d="M97.29,15.83C93.22-1.41,71.61,1.66,58.24,1.56c-9.47-.07-19-.13-28.44.39C21.86,2.38,11.63,2,5.6,8.28A18.92,18.92,0,0,0,1,18.32C-.56,27.56.14,37,.27,46.31S.35,65.13.58,74.54C.65,77.28,1,80,1,82.71A16.91,16.91,0,0,0,5.9,93.32c4.22,4,9.92,4.44,15.43,4.58,6.73.17,13.45.49,20.18.6,8.57.14,17.14.13,25.71-.13,7.07-.21,16.31.83,22.6-3a15.3,15.3,0,0,0,5.11-5.07c5.54-9.13,4.8-20.8,4.93-31.07C100,45.17,100.55,29.61,97.29,15.83Z"/><path class="cls-3" d="M93.57,35.71c0,2.48,0,4.95,0,7.43,0,1.18,0,2.38,0,3.57,0,.64,0,1.27,0,1.92,0,3.37-.08,6.74-.18,10.11,0,1.67-.08,3.35-.15,5a9.25,9.25,0,0,1-.35,2.88,15.74,15.74,0,0,0-.46,3.43A1.59,1.59,0,0,1,92,71a1.46,1.46,0,0,1-.92.31l-1.66.17A77.59,77.59,0,0,1,72.66,72l5.41.8,12.56,1.87a1.87,1.87,0,0,1,.93.34,1.71,1.71,0,0,1,.38,1.38,20.18,20.18,0,0,1-.24,2.21c-.19,1.47-.47,2.92-.53,4.4,0,.31,0,.61,0,.92a7.06,7.06,0,0,1-1.37,2.56,14.15,14.15,0,0,1-10.57,5.88,498.42,498.42,0,0,1-59.61-.09A14,14,0,0,1,11.45,89,13.41,13.41,0,0,1,8,84.71c-.35-.75-.44-1.58-.78-2.34a4.94,4.94,0,0,1-.19-.49,1.3,1.3,0,0,1,.36-1.39,2.94,2.94,0,0,1,1.69-.42c6.57-.22,13.15-.63,19.73-.82,2.07-.06,4.15-.1,6.22-.1-.73-.12-1.47-.21-2.22-.29-3.39-.41-6.82-.54-10.24-.67h-.15a103.13,103.13,0,0,1-12.3-1,9.26,9.26,0,0,1-2.28-.62,3.17,3.17,0,0,1-1.3-1s0-.09-.07-.12A4.05,4.05,0,0,1,6,72.77a11.71,11.71,0,0,0,0-2.9l-.27-5.24c-.06-1-.1-1.91-.15-2.87a2.19,2.19,0,0,1,.29-1.52A2,2,0,0,1,7,59.7c1.29-.33,2.58-.65,3.89-.85a17.39,17.39,0,0,1,1.75-.21l-4.51-1a5.07,5.07,0,0,1-1.33-.44A2.79,2.79,0,0,1,6.53,57a2.78,2.78,0,0,1-1-2.07q0-.41-.12-.81c-.1-.62-.18-1.24-.24-1.87-.11-1-.16-1.92-.2-2.87-.1-2.09-.2-4.78,1.12-6.54A3,3,0,0,1,8.15,42c3.7-.44,7.4-.82,11.11-1.11,3.1-.25,6.2-.45,9.32-.59a104.45,104.45,0,0,1-18.28-.83,9.39,9.39,0,0,1-2.88-.73l-.07,0a2.74,2.74,0,0,1-.67-.41,3.17,3.17,0,0,1-1-1.42,3.3,3.3,0,0,1,0-1.68,4.7,4.7,0,0,0,0-.65c0-1.33.06-2.67.1-4,0-.68,0-1.36.08-2,.09-3,.23-5.91.4-8.86A14,14,0,0,1,19.62,6.51q29.67-1.2,59.6,0A14.15,14.15,0,0,1,92.43,17.84a16.09,16.09,0,0,1,.13,6,7.34,7.34,0,0,1-.4,1.44,3,3,0,0,1-.52,1s0,0,0,.05a2,2,0,0,1-.6.16c-1.17.28-2.34.53-3.52.74-2.35.42-4.73.71-7.11.93-4.79.42-9.6.49-14.4.57h-.14c1.31.09,2.63.16,4,.24,5.94.33,11.87.69,17.82,1a9.19,9.19,0,0,1,4.17.92s0,0,0,0C93.5,32,93.59,33.91,93.57,35.71Z"/><path class="cls-4" d="M22.58,91.59a10.92,10.92,0,0,0,4.05-1,3.84,3.84,0,0,0,1.45-.91,13,13,0,0,0,1.83-4.35L33.6,72.57q7-24.22,14-48.45c1-3.29,1.92-6.76,1.16-10.11s-3.89-6.42-7.28-5.85C53.91,7,66.25,6.39,78.65,7.84c-2.76-.46-5.1,1.47-6.9,3.62A23.51,23.51,0,0,0,68,19C62,36,57.07,53.44,52.11,70.84A81.86,81.86,0,0,0,49,84.64a9.77,9.77,0,0,0,.27,4.24,3.91,3.91,0,0,0,3.05,2.69Z"/><path class="cls-5" d="M78.83,73.12l1.54.23a8.18,8.18,0,0,1-1.31,2.72c-2.48,3.19-7.12,3.77-10.77,4-6.2.35-12.38.72-18.58.69-6.68,0-13.24-.67-19.9-1.13,2-.06,4-.1,6-.1-.74-.11-1.48-.21-2.22-.29-3.4-.41-6.83-.53-10.24-.66h-.16l-.83-.24a5.68,5.68,0,0,1-1.64-.7c-1.13-.81-1.59-2.29-2-3.66-.87-3.12-.55-6.24-.37-9.42.18-3.41.19-6.82.13-10.23-.08-4.27-.28-8.6-.41-12.88L20,41.25c1.58-.13,3.16-.23,4.73-.33,0,5.63.37,11.27.6,16.89,0,.61-.07,1.21,0,1.81,0,.35,0,.56.23.85a3.73,3.73,0,0,0,1.85.92,14.31,14.31,0,0,0,2.07,0H34a40.15,40.15,0,0,1-4.38.47,7.68,7.68,0,0,0-2,.12c-.58.19-1.17.28-1.77.44a.84.84,0,0,0-.46.23.68.68,0,0,0-.16.4A4.09,4.09,0,0,0,25.35,65a4.11,4.11,0,0,1,.26,1.38,14.61,14.61,0,0,0,.24,3.55,2.65,2.65,0,0,0,.35,1.2,4.41,4.41,0,0,0,2.46,1.46c6.88,1.9,14.12,2,21.26,2.06,4.21,0,8.42.09,12.64,0,2.87-.1,8.11.48,10.59-1.28a3.72,3.72,0,0,0,.88-.89Zm-54-35.83c0-1.2.12-2.38.23-3.58a2.91,2.91,0,0,0,0-.59,2.58,2.58,0,0,1,.05-1.07,3.21,3.21,0,0,1,1.4-2.13,4,4,0,0,1,1.75-.32c2.95-.09,5.91-.09,8.86,0l-7-.74a11.26,11.26,0,0,0-4,.05,1.88,1.88,0,0,0,.21-.4,4.27,4.27,0,0,1,.3-.44,4.45,4.45,0,0,1,.7-.74c.46-.38.88-.82,1.36-1.19A12.23,12.23,0,0,1,32,24.35a35.26,35.26,0,0,1,3.48-1,11.81,11.81,0,0,1,2.45-.21c9.25-.14,18.51-.18,27.77-.25a17.62,17.62,0,0,1,4.62.92,5.54,5.54,0,0,1,3,1.68,7.12,7.12,0,0,1,1.23,3.41c2.2-.07,4.4-.19,6.63-.39-.2-2.62-.66-5.17-2.5-7.16-2-2.18-5.46-2.62-8.23-2.78-3.12-.18-6.25-.29-9.38-.36-2.45-.05-4.88-.08-7.33-.09-5,0-9.9.18-14.86.43-5.35.29-12.14-1.52-16.7,2.16a10.44,10.44,0,0,0-3.8,7.06A42.87,42.87,0,0,0,18,34.58c0,2,0,3.94.1,6,2.23.15,4.44.23,6.66.23C24.75,39.6,24.75,38.45,24.78,37.29ZM82,44.85c-.1-4.28-.32-8.56-.63-12.84,0-.67-.09-1.36-.13-2-2.2-.13-4.41-.27-6.63-.38.23,2.34,0,4.95.13,6.69.17,2.69.42,5.38.64,8.07.11,1.3.21,2.6.29,3.91a1.56,1.56,0,0,1-.12,1.11,2.54,2.54,0,0,1-2,.76,65.85,65.85,0,0,0-10.78,1.18,120.13,120.13,0,0,0,13.42-.24c-.1.41-.19.81-.29,1.21a5.06,5.06,0,0,0-.21,1.07,3.65,3.65,0,0,0,.12.66,9,9,0,0,1,0,1.16c0,1.65,0,3.3,0,4.94,0,1.39-.07,2.78-.11,4.16,0,.15,0,.32,0,.47-.08,2.26-.11,5.62-1.63,7.63a52.4,52.4,0,0,0,6.51.23,49.68,49.68,0,0,0,.73-5.4A158.43,158.43,0,0,0,82,49.5c0-1.53,0-3,0-4.59C82,44.89,82,44.88,82,44.85Z"/><path class="cls-6" d="M58.79,80.3a64.59,64.59,0,0,0,8.58-.52c.6-.1,1.22-.08,1.83-.12,1.27-.09,2.54-.22,3.8-.4a12.72,12.72,0,0,0,2.45-.52,7.56,7.56,0,0,0,4.85-5.51c-1.33-.06-2.84-.07-4.17-.12a3.26,3.26,0,0,1,3.24,1.39,12.67,12.67,0,0,1-4.87,2.89,15.94,15.94,0,0,1-3,.42c-6.84.53-13.7,1.06-20.57,1-3.29-.05-6.59-.25-9.88-.12-.95,0-1.9.1-2.86.13a8.77,8.77,0,0,1-1.62,0,8.53,8.53,0,0,0-1.13,0c-.82,0-1.63,0-2.45-.07-1.63-.06-3.26-.19-4.89-.36s-3.53-.43-5.28-.75a4.53,4.53,0,0,1-2.36-.91,4.4,4.4,0,0,1-.9-1.42A18.91,18.91,0,0,1,18.14,70a7.09,7.09,0,0,0,1.48,6.39,9.48,9.48,0,0,0,5.6,3,16.87,16.87,0,0,0,5,.28,6.28,6.28,0,0,1,1.06,0l2.47.14c1.65.08,3.31.14,5,.19s3.28.07,4.92.08a15.48,15.48,0,0,0,2.36,0,12.86,12.86,0,0,1,2.32,0c3.31.11,6.62.19,9.93.16Z"/><path class="cls-6" d="M6.58,75.56A4,4,0,0,1,6,72.77a11.71,11.71,0,0,0,0-2.9c-.15-2.7-.28-5.41-.42-8.11a2.19,2.19,0,0,1,.29-1.52A2,2,0,0,1,7,59.7c1.29-.33,2.58-.65,3.89-.85a13.42,13.42,0,0,1-2.32,1.47,2.53,2.53,0,0,0-.84.56,2.29,2.29,0,0,0-.41,1c-.73,3.4-.34,6.93.08,10.39.17,1.43.34,2.89.47,4.34A3.17,3.17,0,0,1,6.58,75.56Z"/><path class="cls-6" d="M5.37,54.15a37.62,37.62,0,0,1-.44-4.74c-.1-2.09-.2-4.78,1.12-6.54A3,3,0,0,1,8.15,42c3.7-.44,7.4-.82,11.11-1.11-3.51,1.17-7.55,1.18-11,2.62A3.35,3.35,0,0,0,6.7,44.68,3.64,3.64,0,0,0,6.31,46,19.06,19.06,0,0,0,6,50.09c.05.9.13,1.8.21,2.7.14,1.48.34,2.94.58,4.4A2.79,2.79,0,0,1,6.53,57C5.54,56.32,5.56,55.23,5.37,54.15Z"/><path class="cls-6" d="M77.46,72.49a3.71,3.71,0,0,0,.46.19A1.1,1.1,0,0,1,77.46,72.49Z"/><path class="cls-6" d="M91.94,76.34c-.1,2.24-.69,4.39-.77,6.61,0,.31,0,.61,0,.92a7.06,7.06,0,0,1-1.37,2.56,14.15,14.15,0,0,1-10.57,5.88,498.42,498.42,0,0,1-59.61-.09A14,14,0,0,1,11.45,89,13.41,13.41,0,0,1,8,84.71c-.35-.75-.44-1.58-.78-2.34a4.94,4.94,0,0,1-.19-.49,1.3,1.3,0,0,1,.36-1.39,2.94,2.94,0,0,1,1.69-.42c6.57-.22,13.15-.63,19.73-.82a145,145,0,0,0-17.24,2.16,17.58,17.58,0,0,0-2.39.42.61.61,0,0,0-.34.15c-.14.15-.1.36-.08.56a3.72,3.72,0,0,0,.87,1.78,15.48,15.48,0,0,0,4.67,4.59c4.69,2.48,9.48,2.11,14.79,2a21.64,21.64,0,0,0,3.23-.2,8.54,8.54,0,0,1,1.75,0l3.73.1,7.45.21,14,.38a120.24,120.24,0,0,0,13.29-.13,40.52,40.52,0,0,0,12.79-2.94,4.88,4.88,0,0,0,1-.49c.21-.16.38-.35.6-.5a13.26,13.26,0,0,0,1.91-1.41A4.61,4.61,0,0,0,90,84.56c.11-.28.17-.61.28-.9a9.31,9.31,0,0,0,.49-2.51,15.69,15.69,0,0,0-.1-2.82,4,4,0,0,0-.23-1.54,1.84,1.84,0,0,0-.69-.47,7,7,0,0,0-1.85-.53,44,44,0,0,1-9.82-3l12.56,1.87a1.87,1.87,0,0,1,.93.34A1.71,1.71,0,0,1,91.94,76.34Z"/><path class="cls-6" d="M5.72,36.85a7.6,7.6,0,0,1-.14-2.13c.09-3.46.18-6.92.37-10.38.17-3.17.11-6.52,1.41-9.47A14.13,14.13,0,0,1,19.62,6.51q29.67-1.2,59.6,0A14.15,14.15,0,0,1,92.43,17.84a16.09,16.09,0,0,1,.13,6,7.34,7.34,0,0,1-.4,1.44,3,3,0,0,1-.52,1c-.41-3.17.36-6.66-.78-9.64a10.42,10.42,0,0,0-3.2-4.78C82.57,7.93,75.07,8.2,69,8.09c-16.88-.3-33.66-.83-50.48.7-.78.07-1.54-.21-2.29-.09a9.69,9.69,0,0,0-4.49,2.53A14.6,14.6,0,0,0,8,16.86a18.91,18.91,0,0,0-.59,1.9C5.73,25,6.43,32.28,7.21,38.63A2.43,2.43,0,0,1,5.76,37Z"/><path class="cls-6" d="M93.57,35.71c0,2.48,0,4.95,0,7.43,0,1.18,0,2.38,0,3.57,0,5.69-.12,11.37-.34,17a9.25,9.25,0,0,1-.35,2.88,15.74,15.74,0,0,0-.46,3.43A1.59,1.59,0,0,1,92,71a1.46,1.46,0,0,1-.92.31l-1.66.17a2.37,2.37,0,0,0,.76-.89,4.69,4.69,0,0,0,.37-1.78,277.56,277.56,0,0,0,.58-30.11c0-1.32-.09-2.66-.15-4a8.84,8.84,0,0,0,0-.89,2,2,0,0,0-.5-1.07,4.94,4.94,0,0,0-2.27-1.41c-6.13-2.06-13-.55-19.19-2.41h.75c5.94.33,11.87.69,17.82,1a9.19,9.19,0,0,1,4.17.92C93.5,32,93.59,33.89,93.57,35.71Z"/></g></g></svg>