<svg xmlns="http://www.w3.org/2000/svg" xmlns:xlink="http://www.w3.org/1999/xlink" viewBox="0 0 100 100"><defs><style>.cls-1{isolation:isolate;}.cls-2{fill:url(#_ÂÁ_Ï_ÌÌ_È_ËÂÌÚ_17);}.cls-3{fill:url(#_ÂÁ_Ï_ÌÌ_È_ËÂÌÚ_17-2);}.cls-4{fill:#d8e0eb;}.cls-5{fill:url(#_ÂÁ_Ï_ÌÌ_È_ËÂÌÚ_17-3);}.cls-6{fill:url(#_ÂÁ_Ï_ÌÌ_È_ËÂÌÚ_17-4);}.cls-7{fill:url(#_ÂÁ_Ï_ÌÌ_È_ËÂÌÚ_17-5);}.cls-8{fill:url(#_ÂÁ_Ï_ÌÌ_È_ËÂÌÚ_17-6);}.cls-9{fill:url(#_ÂÁ_Ï_ÌÌ_È_ËÂÌÚ_17-7);}.cls-10,.cls-16{mix-blend-mode:screen;}.cls-10{fill:url(#_ÂÁ_Ï_ÌÌ_È_ËÂÌÚ_2);}.cls-11{fill:url(#_ÂÁ_Ï_ÌÌ_È_ËÂÌÚ_17-8);}.cls-12{fill:url(#_ÂÁ_Ï_ÌÌ_È_ËÂÌÚ_7);}.cls-13{fill:#ffdf80;}.cls-14{fill:url(#_ÂÁ_Ï_ÌÌ_È_ËÂÌÚ_12);}.cls-15{fill:url(#_ÂÁ_Ï_ÌÌ_È_ËÂÌÚ_12-2);}.cls-16{fill:url(#_ÂÁ_Ï_ÌÌ_È_ËÂÌÚ_11);}</style><linearGradient id="_ÂÁ_Ï_ÌÌ_È_ËÂÌÚ_17" x1="81.2" y1="-2.58" x2="56.54" y2="39.06" gradientUnits="userSpaceOnUse"><stop offset="0" stop-color="#9caeb5"/><stop offset="1" stop-color="#32404d"/></linearGradient><linearGradient id="_ÂÁ_Ï_ÌÌ_È_ËÂÌÚ_17-2" x1="81.65" y1="-8.75" x2="2.29" y2="138.46" xlink:href="#_ÂÁ_Ï_ÌÌ_È_ËÂÌÚ_17"/><linearGradient id="_ÂÁ_Ï_ÌÌ_È_ËÂÌÚ_17-3" x1="107.44" y1="15.51" x2="107.84" y2="53.75" gradientTransform="matrix(1.06, 0.02, 0.02, 1, -21.84, -6.36)" xlink:href="#_ÂÁ_Ï_ÌÌ_È_ËÂÌÚ_17"/><linearGradient id="_ÂÁ_Ï_ÌÌ_È_ËÂÌÚ_17-4" x1="10.98" y1="18.65" x2="11.34" y2="53.09" xlink:href="#_ÂÁ_Ï_ÌÌ_È_ËÂÌÚ_17"/><linearGradient id="_ÂÁ_Ï_ÌÌ_È_ËÂÌÚ_17-5" x1="85.21" y1="5.36" x2="85.66" y2="49.43" xlink:href="#_ÂÁ_Ï_ÌÌ_È_ËÂÌÚ_17"/><linearGradient id="_ÂÁ_Ï_ÌÌ_È_ËÂÌÚ_17-6" x1="26.06" y1="9.61" x2="20.02" y2="20.1" xlink:href="#_ÂÁ_Ï_ÌÌ_È_ËÂÌÚ_17"/><linearGradient id="_ÂÁ_Ï_ÌÌ_È_ËÂÌÚ_17-7" x1="15.52" y1="17.22" x2="7.24" y2="48.4" xlink:href="#_ÂÁ_Ï_ÌÌ_È_ËÂÌÚ_17"/><linearGradient id="_ÂÁ_Ï_ÌÌ_È_ËÂÌÚ_2" x1="78.18" y1="-4.59" x2="12.12" y2="95.43" gradientUnits="userSpaceOnUse"><stop offset="0" stop-color="#d8e7eb"/><stop offset="1"/></linearGradient><linearGradient id="_ÂÁ_Ï_ÌÌ_È_ËÂÌÚ_17-8" x1="51.2" y1="137.74" x2="48.53" y2="53.29" xlink:href="#_ÂÁ_Ï_ÌÌ_È_ËÂÌÚ_17"/><linearGradient id="_ÂÁ_Ï_ÌÌ_È_ËÂÌÚ_7" x1="52.65" y1="14.92" x2="47.66" y2="68.21" gradientUnits="userSpaceOnUse"><stop offset="0" stop-color="#ffca2b"/><stop offset="1" stop-color="#d15b24"/></linearGradient><linearGradient id="_ÂÁ_Ï_ÌÌ_È_ËÂÌÚ_12" x1="47.4" y1="86.98" x2="49.23" y2="51.54" gradientUnits="userSpaceOnUse"><stop offset="0" stop-color="#ffce3b"/><stop offset="1" stop-color="#cc6923"/></linearGradient><linearGradient id="_ÂÁ_Ï_ÌÌ_È_ËÂÌÚ_12-2" x1="48.5" y1="66.26" x2="50.34" y2="25.31" xlink:href="#_ÂÁ_Ï_ÌÌ_È_ËÂÌÚ_12"/><linearGradient id="_ÂÁ_Ï_ÌÌ_È_ËÂÌÚ_11" x1="81.26" y1="15.29" x2="21.4" y2="74.45" gradientUnits="userSpaceOnUse"><stop offset="0" stop-color="#f2de6d"/><stop offset="1"/></linearGradient></defs><g class="cls-1"><g id="Layer_1" data-name="Layer 1"><path class="cls-2" d="M100,50.2c0,.16,0,.3,0,.45a34.24,34.24,0,0,1-1.53,8.63,79.76,79.76,0,0,1-3.26,8.55q-1.2,2.72-2.5,5.37a2.06,2.06,0,0,1-.17.33,108.85,108.85,0,0,1-6.64,11.54A32.17,32.17,0,0,1,83,88.93a22.5,22.5,0,0,1-5,4.34C73.47,96,67.74,96.46,62.54,96.76a166.89,166.89,0,0,1-17.47,0c-5.54-.27-11.1-.44-16.33-2.52C23.13,92,18.52,88,14.81,83.43c0,0,0,0-.05-.07A76.06,76.06,0,0,1,7.59,72.65c-.59-1-1.16-2.05-1.71-3.06-.37-.68-.73-1.34-1.07-2-.44-.83-.83-1.64-1.22-2.47A38.94,38.94,0,0,1,.17,53a33.23,33.23,0,0,1,0-7A34.07,34.07,0,0,1,.93,42a37.22,37.22,0,0,1,1.49-4.6c.17-.42.33-.84.51-1.26.54-1.35,1.11-2.7,1.72-4l1-2.19c.7-1.49,1.45-3,2.25-4.45.52-1,1.07-1.93,1.65-2.87.71-1.22,1.46-2.4,2.25-3.57,0-.08.1-.15.15-.23.4-.59.79-1.16,1.2-1.73s.67-.95,1-1.4a2,2,0,0,1,.19-.24c3-4,6.66-7.51,11.77-9.23C37,2.59,48.28,2.64,60,3.42c4.73.32,10,1.19,13.73,4.17a94.27,94.27,0,0,1,19.92,21.6,2.61,2.61,0,0,1,.19.27,37,37,0,0,1,4.74,10.35.2.2,0,0,1,0,0c.2.68.37,1.36.51,2,.12.52.23,1,.32,1.57,0,0,0,0,0,.07h0A34.22,34.22,0,0,1,100,48C100,48.73,100,49.48,100,50.2Z"/><path class="cls-3" d="M94.92,50.17c0,.15,0,.28,0,.41a29.75,29.75,0,0,1-1.37,7.69,71,71,0,0,1-2.93,7.61c-.72,1.62-1.46,3.21-2.25,4.78a2.1,2.1,0,0,1-.15.3,95.35,95.35,0,0,1-6,10.27,28.26,28.26,0,0,1-2.63,3.44,20,20,0,0,1-4.52,3.87c-4,2.47-9.15,2.84-13.82,3.11a152.25,152.25,0,0,1-15.7,0c-5-.23-10-.39-14.67-2.24a31.77,31.77,0,0,1-12.52-9.66s0,0-.05,0a67.93,67.93,0,0,1-6.44-9.54c-.53-.92-1-1.83-1.54-2.73-.33-.61-.65-1.2-1-1.79s-.75-1.46-1.09-2.2A34.19,34.19,0,0,1,5.22,52.68a28.67,28.67,0,0,1,0-6.28,30.9,30.9,0,0,1,.64-3.49,34.33,34.33,0,0,1,1.34-4.1c.15-.37.3-.75.46-1.12.49-1.21,1-2.4,1.55-3.59.29-.65.59-1.29.9-2,.63-1.32,1.3-2.65,2-4,.48-.86,1-1.72,1.49-2.56.64-1.08,1.31-2.14,2-3.18a1.13,1.13,0,0,1,.13-.2c.35-.52.71-1,1.08-1.54s.6-.85.92-1.25l.17-.21c2.74-3.56,6-6.69,10.58-8.23C38.31,7.77,48.46,7.82,59,8.51c4.25.28,9,1.07,12.34,3.71a84.41,84.41,0,0,1,17.9,19.25c.06.08.12.15.17.23a33,33,0,0,1,4.26,9.22.2.2,0,0,1,0,0c.18.6.33,1.21.46,1.83.11.46.21.92.29,1.4,0,0,0,0,0,0v0a30.35,30.35,0,0,1,.45,3.92C94.94,48.87,94.94,49.53,94.92,50.17Z"/><path class="cls-4" d="M89.42,31.7a33,33,0,0,1,4.26,9.22c-.21-.44-.46-.85-.68-1.24-.76-1.42-1.56-2.82-2.41-4.18A76.9,76.9,0,0,0,85.27,28,12.44,12.44,0,0,1,83,24.83a8.24,8.24,0,0,0-2-2.64c-2.59-2.64-5.64-4.72-8.45-7.08a25.62,25.62,0,0,0-5.13-3.76,15.39,15.39,0,0,0-6-1.33c-.76,0-1.51-.06-2.27-.07a2.5,2.5,0,0,1-.9-.1,6,6,0,0,0-1-.17c-1-.1-1.91-.19-2.87-.26a75.91,75.91,0,0,0-23.84,2,18.49,18.49,0,0,0-4.16,1.45l-.56.32a32,32,0,0,0-3.39,2.63,21.48,21.48,0,0,1-1.7,1.32,5.07,5.07,0,0,1-.72.4,2.48,2.48,0,0,0-.9,1,18.24,18.24,0,0,0-1.27,2.54,1.42,1.42,0,0,0-.17.42c-.11.46-.18.93-.27,1.41a3.46,3.46,0,0,1-1.66-.5,1.13,1.13,0,0,1,.13-.2c.35-.52.71-1,1.08-1.54s.6-.85.92-1.25l.17-.21c2.74-3.56,6-6.69,10.58-8.23C38.31,7.77,48.46,7.82,59,8.51c4.25.28,9,1.07,12.34,3.71A84.93,84.93,0,0,1,89.42,31.7Z"/><path class="cls-4" d="M94.44,44.2c0,.15-.06.29-.1.45a7.27,7.27,0,0,1-.19-1.79V42.8C94.26,43.26,94.36,43.72,94.44,44.2Z"/><path class="cls-4" d="M90.71,47.13a1.85,1.85,0,0,0,.37.51l1.48,1.56c.18.19.38.29.56.46A4.12,4.12,0,0,1,94,51a1.4,1.4,0,0,1,.2,1l-.12,1c-.09.67-.2,1.33-.31,2-.24,1.33-.53,2.65-.87,4a49,49,0,0,1-2.7,7.63l0,.07c.26-.58.62-1.12.9-1.69s.57-1.17.83-1.77a36.6,36.6,0,0,0,1.4-3.65,39,39,0,0,0,1.65-7.63c.07-.6.12-1.19.16-1.79a5.19,5.19,0,0,0,0-.88c0-.27-.07-.55-.09-.82a33.12,33.12,0,0,0-.54-4.22L91.36,46c-.32.2-.69.45-.71.82A.73.73,0,0,0,90.71,47.13Z"/><path class="cls-4" d="M11,30.18a31.1,31.1,0,0,0-1.37,3c-.4,1-.92,2-1.36,3-.36.86-.72,1.72-1.06,2.58a34.33,34.33,0,0,0-1.34,4.1c-1.72,7-.7,13.84,2.4,20.55.34.74.7,1.46,1.09,2.2.78,1.48,1.61,3,2.5,4.52a66.22,66.22,0,0,0,6.49,9.59A31.77,31.77,0,0,0,30.9,89.43c4.69,1.85,9.69,2,14.67,2.24a152.25,152.25,0,0,0,15.7,0c4.67-.27,9.82-.64,13.82-3.11a23.72,23.72,0,0,0,7.15-7.31c.87-1.3,1.7-2.62,2.51-4,.41-.69.82-1.39,1.21-2.09a13.5,13.5,0,0,1,1-1.64,7.39,7.39,0,0,0,.64-1,11.54,11.54,0,0,0,1-2.45,2.31,2.31,0,0,1-.56.12l-.61.06a2.7,2.7,0,0,1-.41-.05,1.75,1.75,0,0,0-.56,0c-1.61.16-3.22.35-4.84.5a36.92,36.92,0,0,1,4.74,1.19c-.16,2.34-1.45,4.43-2.75,6.38-2.15,3.21-4.52,6.44-7.87,8.36a22.37,22.37,0,0,1-6.37,2.24,88.77,88.77,0,0,1-24.84,1.52,50.8,50.8,0,0,1-11.83-1.83,26.58,26.58,0,0,1-5.45-2.36,19.86,19.86,0,0,1-3.38-2.46,8.5,8.5,0,0,0-1.42-1.27,1.59,1.59,0,0,1-.35-.22,18.7,18.7,0,0,1-1.81-1.75,38.61,38.61,0,0,1-3.43-4.12,45.29,45.29,0,0,1-3.13-4.51,2,2,0,0,1-.47-1.1,2.13,2.13,0,0,1,.15-.75,2.85,2.85,0,0,1,1.11-1.2,10.71,10.71,0,0,0,2.13-1.36c-.08.08-.88-.15-1-.18-.35-.06-.7-.13-1-.21-.7-.15-1.39-.31-2.08-.5a2.75,2.75,0,0,0-.81-.13,1.13,1.13,0,0,1-.6-.09A2.41,2.41,0,0,1,10,65.09c-.05-.1-.09-.19-.13-.29L9,62.87a28.12,28.12,0,0,1-2.31-8.08,6.66,6.66,0,0,1-.09-1.48,2.49,2.49,0,0,1,.32-.68c.27-.51.53-1,.79-1.53a.83.83,0,0,0,.13-.48c0-.32-.4-.48-.72-.53a4.45,4.45,0,0,1-.81-.24c-.11,0-.26,0-.33-.09s0-.59,0-.76c0-.59,0-1.19.07-1.79a13.39,13.39,0,0,0,.15-2.44,8.84,8.84,0,0,1,.65-3.12A34.75,34.75,0,0,1,8,38.36c.27-.67.57-1.32.87-2a5.46,5.46,0,0,1,.44-.87,3.19,3.19,0,0,0,.32-.43c.26-.5.43-1.08.64-1.6a19.6,19.6,0,0,1,1.57-3.1,1.74,1.74,0,0,1,.11-.18,8.71,8.71,0,0,1,4.34-3.57A3.76,3.76,0,0,1,18,26.39a2.11,2.11,0,0,0,.83,0,17.93,17.93,0,0,0,2.65-.8c.41-.14.82-.3,1.22-.46l-5-2.49a6.57,6.57,0,0,0-1.26.59c-.13.07-.25.16-.38.22l-.29.13a3.82,3.82,0,0,0-.74.81l-.95,1.1-.48.55a2.72,2.72,0,0,0-.27.42c-.22.38-.52.74-.77,1.11s-.49.76-.73,1.15S11.29,29.69,11,30.18Z"/><path class="cls-5" d="M90.84,47.16c0,.12.15.18.27.21l1.63.47a3.06,3.06,0,0,1,1.23.47,2.87,2.87,0,0,1,1.25,2.06.16.16,0,0,1,0-.1c.08-.36,0-.59.09-.92s.21-.44.32-.66a5.66,5.66,0,0,0,.51-1.37,1.84,1.84,0,0,0-.93-2.14,2.11,2.11,0,0,0-1.49.2c-.28.12-.56.28-.85.4a3.61,3.61,0,0,1-.65.15c-.47.11-1,.7-1.29,1C90.89,47,90.83,47.08,90.84,47.16Z"/><path class="cls-6" d="M11.21,68.67a.47.47,0,0,1-.2-.12,4.91,4.91,0,0,1-.74-1.25c-.3-.55-.61-1.09-.88-1.64-.39-.74-.75-1.46-1.09-2.2a3,3,0,0,0,.28.25A28.63,28.63,0,0,0,14.08,67a1.55,1.55,0,0,1,.44.32.46.46,0,0,1,.06.51.74.74,0,0,1-.43.24l-1.85.47A2,2,0,0,1,11.21,68.67Z"/><path class="cls-7" d="M88.83,67.59c-2.3,1.64-5.28,2.36-8.16,3,2.54,0,5.08,0,7.62.07A1.78,1.78,0,0,0,88,72.18c.51-1.16,1-2.32,1.52-3.47s.89-2.34,1.49-3.42c0,.38-.64.91-.93,1.2A9.64,9.64,0,0,1,88.83,67.59Z"/><path class="cls-8" d="M20.72,24.49l-.27.43c-.69.1-1.38.22-2.07.31a4.23,4.23,0,0,1-1.28-.13,2.31,2.31,0,0,0-1.52.45c-.6.39-1.19.8-1.79,1.21a8.58,8.58,0,0,0-1.63,1.43,69.51,69.51,0,0,1,3.65-5.94c.35-.52.71-1,1.08-1.54a.88.88,0,0,0,0,.28C17,22.29,18,22.82,19,23.43Z"/><path class="cls-9" d="M5.11,47.11a3,3,0,0,0-.1.54,1.74,1.74,0,0,0,.2.74l.13.25a1.79,1.79,0,0,0,.22.34,1.22,1.22,0,0,0,.74.32,12.2,12.2,0,0,1,3,.87c-.07,0-.51.21-.59.24a6.12,6.12,0,0,1-.69.22,7.32,7.32,0,0,1-1.39.22c-.38,0-.66-.07-.93.28a1.59,1.59,0,0,0-.28,1,6.23,6.23,0,0,1,0,1.43A19.61,19.61,0,0,1,5.11,47.11Z"/><path class="cls-10" d="M35.85,79.43c-1.62,1.79-3,3.8-2.65,5.95s1.52,4.13,3.8,4.36c-6.18,1-12.83-2.46-16.33-7.65-2.58-3.84-5.72-7.77-8.3-11.61,3.83,1.34,8.2-.14,11.31-2.74s5.24-6.17,7.3-9.67L47,30.83a34.85,34.85,0,0,0,3.89-8.15,11.79,11.79,0,0,0-.64-8.8c-1.46-2.64-4.61-4.45-7.55-3.76-.3.07-.44-1.15-.23-1.39a1.06,1.06,0,0,1,.88-.21L65.59,9.93C74,10.45,79.81,19.35,84.9,26c-3.72-4.87-8.17,1.31-10,3.91-4.52,6.33-9.21,12.53-13.95,18.7q-6.8,8.87-13.84,17.54C44.32,69.58,41.51,73,38.7,76.37,37.92,77.3,36.85,78.32,35.85,79.43Z"/><path class="cls-11" d="M80.1,46.59A40.69,40.69,0,0,0,77,37,40,40,0,0,0,72.13,29c-1.76-2.2-4.57-3.58-7-4.95a35.43,35.43,0,0,0-3.06-1.84c-22-9.8-47.85,9.22-45.63,32.28a26.64,26.64,0,0,0,3.6,11c5.5,9.36,15.56,15.32,26.57,16.36a37.3,37.3,0,0,0,12.2-.74A28.73,28.73,0,0,0,77.42,67C80.76,61.05,81.31,53.19,80.1,46.59ZM70.23,64a21.54,21.54,0,0,1-14,10.58,27.9,27.9,0,0,1-9.16.55,25.86,25.86,0,0,1-20-12.28,20.22,20.22,0,0,1-2.7-8.28,20.46,20.46,0,0,1-.09-2.71c0-.4.07-.8.05-1.2a2.47,2.47,0,0,0-.13-.6,4,4,0,0,1,0-1.89,2.51,2.51,0,0,1,1.05-1.65,3.59,3.59,0,0,1,1.49-.4,25.87,25.87,0,0,1,3.63-.14l-4.62-.72a17.34,17.34,0,0,1,.58-2c.25-.63.6-1.21.9-1.81a17.2,17.2,0,0,1,1.83-2.79A26.53,26.53,0,0,1,39.53,30.4,25.1,25.1,0,0,1,46,28.53,22.88,22.88,0,0,1,58.7,30.26c.82.37,1.52.94,2.3,1.38,1.82,1,3.93,2.08,5.24,3.73a30.23,30.23,0,0,1,3.69,6.05,31.33,31.33,0,0,1,2.31,7.17,19.38,19.38,0,0,1,0,8c-3.13.17-6.27.22-9.41.13l8.57.93c.91.1.42.91.23,1.48a4.87,4.87,0,0,0-.24,1.51,4,4,0,0,1-.2,1.37,9.24,9.24,0,0,1-.41,1l-.24.49C70.43,63.58,70.23,63.83,70.23,64Z"/><path class="cls-4" d="M73.07,71.75a22.29,22.29,0,0,0,5.49-9.52,37.18,37.18,0,0,0,1.35-11,4.46,4.46,0,0,0-.24-1.58,1.89,1.89,0,0,0-1.51-1.13L75,47.76c2.52.1,5.25,0,7.76-.14l-1.26.43a.94.94,0,0,0-.3.15.71.71,0,0,0-.16.31,5.47,5.47,0,0,0,0,1.85,21.45,21.45,0,0,1,0,3q0,.73-.12,1.47a29.23,29.23,0,0,1-.54,3.22c-.41,2-.68,4.1-1.23,6.09a12.27,12.27,0,0,1-2.89,5.44,1.83,1.83,0,0,0,.91,1,3.38,3.38,0,0,0-1.48.34,3.78,3.78,0,0,0-.64.56c-.7.74-1.38,1.48-2.09,2.2a3.12,3.12,0,0,1-.75.56,9.11,9.11,0,0,0-1.52,1.52,20.2,20.2,0,0,1-8.33,4.72l-.69.22a35.05,35.05,0,0,1-6.48,1.28,36.49,36.49,0,0,1-6.61.06,33.07,33.07,0,0,1-3.28-.43l-1.62-.33c-1.71-.39-3.44-.67-5.12-1.22-4.93-1.59-9.25-4.58-13.24-7.83-.48-.39-1-.78-1.43-1.18-.21-.18-.47-.36-.66-.56s-.28-.36-.46-.51a3.2,3.2,0,0,0-1.24-.61,16,16,0,0,0-2.2-.3.83.83,0,0,1,.63-.37,10.79,10.79,0,0,1,1.7-.19c.28,0,.58,0,.86,0a2.9,2.9,0,0,1,.66,0c1.12.1,2.22.37,3.34.5a7.67,7.67,0,0,0,2,0c-1.62.15-3.23.29-4.85.42.61,1.48,2.11,2.38,3.55,3.11a6,6,0,0,1,.86.47l.33.26.67.52,1.35,1c.91.67,1.84,1.32,2.81,1.91a25.63,25.63,0,0,0,4.22,2.12,24,24,0,0,0,7.1,1.61c4.39.32,8.66.89,13,.21.51-.08,1-.16,1.54-.27a27.58,27.58,0,0,0,9.45-4.48A32,32,0,0,0,73.07,71.75Z"/><path class="cls-12" d="M76.47,54.06a19,19,0,0,1-.2,3.31,20.81,20.81,0,0,1-2.63,7.71.06.06,0,0,1,0,0C67.86,75,54.39,79.72,42.87,76.72A28,28,0,0,1,25.93,63.45c-.29-.47-.56-1-.81-1.48A28.66,28.66,0,0,1,22,50.17a23.59,23.59,0,0,1,.22-4.67c0-.43.13-.84.19-1.25a22.29,22.29,0,0,1,1-3.58,27.91,27.91,0,0,1,9.52-12.2c1.33-1,2.71-1.95,4.13-2.81,8.17-4.92,18.24-3.58,26,1.58A29,29,0,0,1,73.88,40.73c.21.49.39,1,.58,1.52q.06.15.12.33c.13.39.25.78.37,1.19s.31,1.09.43,1.65a4.31,4.31,0,0,1,.15.62c.06.2.1.43.14.63s.09.46.15.68.1.64.16,1v.08l.12.8a.24.24,0,0,0,0,.15l.12,1c0,.06,0,.12,0,.16C76.39,51.71,76.45,52.88,76.47,54.06Z"/><path class="cls-13" d="M69.89,63.78a41.81,41.81,0,0,1-2.82,3.41l-.24.25A12.06,12.06,0,0,0,68.36,65a29.35,29.35,0,0,0,1.3-2.64,14.1,14.1,0,0,0,1-2.72,11.5,11.5,0,0,0-.08-1.94A17,17,0,0,1,71,55.55a6.84,6.84,0,0,0,0-1.43,28.76,28.76,0,0,0-.2-3.07,26.49,26.49,0,0,0-1.39-6c0-.12-.09-.24-.13-.35-2.33-6-7.37-11.15-13.64-12.61C51,31.06,46.08,32.05,41.76,34c-.53.22-1.07.49-1.58.76a46,46,0,0,0-5.93,3.76c-1.85,1.36-3.55,3-5.47,4.24a3.75,3.75,0,0,1-3,.72,3.56,3.56,0,0,1-2-2,7.71,7.71,0,0,1-.39-.82,27.91,27.91,0,0,1,9.52-12.2c1.33-1,2.71-1.95,4.13-2.81,8.17-4.92,18.24-3.58,26,1.58a29,29,0,0,1,4.94,4.16,29.83,29.83,0,0,1,3.21,4.06,34.33,34.33,0,0,1,5.26,15.39,7.64,7.64,0,0,1-.69,4.39,4.83,4.83,0,0,1-1.15,1.39,1.75,1.75,0,0,0-.37.35c-1.29,1.81-2.25,3.82-3.51,5.66C70.43,63,70.16,63.4,69.89,63.78Z"/><path class="cls-14" d="M72.09,54a17.08,17.08,0,0,1-.16,2.8,17.5,17.5,0,0,1-2.2,6.5.07.07,0,0,1,0,0C65.25,71,55.38,75,46.29,73.61l-.09,0a16.73,16.73,0,0,1-2.32-.47,23.12,23.12,0,0,1-12.71-8.88,20.26,20.26,0,0,1-1.5-2.31c-.25-.41-.47-.82-.68-1.25a24.24,24.24,0,0,1-2.65-10,23.49,23.49,0,0,1,.18-3.92c.06-.37.1-.72.19-1.07,1-5.6,4.52-10,8.82-13.29A38.24,38.24,0,0,1,39,30.06a17.16,17.16,0,0,1,5.59-2.2,21.46,21.46,0,0,1,16.2,3.53,24.71,24.71,0,0,1,9.14,11.38c.16.43.32.84.47,1.29,0,.08.06.17.1.27l.31,1a8.75,8.75,0,0,1,.23.88s0,0,0,.06a4,4,0,0,1,.12.43l.12.54c0,.16.09.35.13.53s.06.37.1.58.1.53.14.8v.08c0,.23.09.44.13.68v.13c0,.28.06.59.1.88,0,0,0,.08,0,.14l.12,1.46C72.07,53,72.09,53.52,72.09,54Z"/><path class="cls-15" d="M72.05,52.53c-7.42,5.29-19.45,7.53-30,5.56a32.85,32.85,0,0,1-15.69-7.37,23.49,23.49,0,0,1,.18-3.92c.06-.37.1-.72.19-1.07,1-5.6,4.52-10,8.82-13.29A38.24,38.24,0,0,1,39,30.06c6.84-4.16,15.32-3,21.79,1.33a24.71,24.71,0,0,1,9.14,11.38c.16.43.32.84.47,1.29,0,.08.06.17.1.27l.31,1c.14.45.27.92.37,1.37l.12.54c0,.16.09.35.13.53s.06.37.1.58.1.53.14.8v.08c0,.23.09.44.13.68v.13c0,.28.06.59.1.88,0,0,0,.08,0,.14Z"/><path class="cls-16" d="M71.05,46.22a8.55,8.55,0,0,1-.58-1.64,4.27,4.27,0,0,0-1-2.1A1.86,1.86,0,0,0,67.36,42a2.76,2.76,0,0,0-1,1.11c-1.28,2.1-2.33,4.3-3.58,6.4a63.1,63.1,0,0,1-17.56,19,5.64,5.64,0,0,0-1.81,1.69,2,2,0,0,0-.27,1.58c.18.8,1.17,1.22,1.85,1.46.39.15.8.27,1.21.39a16.73,16.73,0,0,1-2.32-.47,23.12,23.12,0,0,1-12.71-8.88A3.33,3.33,0,0,0,33,64.4a6.51,6.51,0,0,0,2.88-1.89c5.49-5.35,10.67-11.15,14.31-17.91A20.87,20.87,0,0,0,52.64,38a9.55,9.55,0,0,0-1.32-6.8A3.69,3.69,0,0,0,50.15,30c-.16-.08-.35-.12-.53-.22-.58-.29-1.09-.66-1.69-.93a11.68,11.68,0,0,0-3.33-1,21.46,21.46,0,0,1,16.2,3.53,24.71,24.71,0,0,1,9.14,11.38c.16.43.32.84.47,1.29,0,.08.06.17.1.27l.31,1A8.75,8.75,0,0,1,71.05,46.22Z"/></g></g></svg>