<svg xmlns="http://www.w3.org/2000/svg" xmlns:xlink="http://www.w3.org/1999/xlink" viewBox="0 0 500 500"><defs><style>.cls-1{isolation:isolate;}.cls-11,.cls-13,.cls-19,.cls-2{opacity:0.5;}.cls-3{fill:#070c28;stroke:#070c28;stroke-miterlimit:10;stroke-width:3px;}.cls-4{fill:url(#linear-gradient);}.cls-5{fill:#08aff9;}.cls-6{fill:#0685ed;}.cls-7{fill:#0857a5;}.cls-8{fill:url(#linear-gradient-2);}.cls-9{fill:#00cfff;}.cls-10,.cls-20,.cls-21,.cls-24{fill:#31b8ff;}.cls-10{opacity:0.43;}.cls-10,.cls-20,.cls-21,.cls-22{mix-blend-mode:overlay;}.cls-11,.cls-13,.cls-19,.cls-28,.cls-29{mix-blend-mode:screen;}.cls-12{fill:url(#linear-gradient-3);}.cls-13{fill:url(#linear-gradient-4);}.cls-14{opacity:0.31;mix-blend-mode:multiply;}.cls-15{fill:url(#linear-gradient-5);}.cls-16{fill:url(#linear-gradient-6);}.cls-17{fill:url(#linear-gradient-7);}.cls-18{fill:url(#linear-gradient-8);}.cls-19{fill:url(#linear-gradient-9);}.cls-20{opacity:0.53;}.cls-21{opacity:0.32;}.cls-23{fill:#79bfff;}.cls-25{fill:#08f;}.cls-26{fill:#009aff;}.cls-27{fill:#0053ff;}.cls-28{fill:url(#radial-gradient);}.cls-29{fill:#25b6ff;}</style><linearGradient id="linear-gradient" x1="224.47" y1="47.68" x2="155.21" y2="167.74" gradientUnits="userSpaceOnUse"><stop offset="0" stop-color="#d5f5f5"/><stop offset="1" stop-color="#8deef4"/></linearGradient><linearGradient id="linear-gradient-2" x1="628.46" y1="48.02" x2="558.42" y2="169.43" gradientTransform="matrix(-1, 0, 0, 1, 880.5, 0)" gradientUnits="userSpaceOnUse"><stop offset="0" stop-color="#56d0d5"/><stop offset="1" stop-color="#8deef4"/></linearGradient><linearGradient id="linear-gradient-3" x1="108.6" y1="101.52" x2="238.24" y2="101.52" gradientUnits="userSpaceOnUse"><stop offset="0" stop-color="#79bfff"/><stop offset="0.13" stop-color="#6eadf9"/><stop offset="0.39" stop-color="#507eea"/><stop offset="0.76" stop-color="#2134d2"/><stop offset="1" stop-color="#0000c1"/></linearGradient><linearGradient id="linear-gradient-4" x1="84.59" y1="117.84" x2="124.85" y2="268.19" gradientUnits="userSpaceOnUse"><stop offset="0" stop-color="#31b8ff"/><stop offset="0.14" stop-color="#2ca6f9"/><stop offset="0.41" stop-color="#2077e9"/><stop offset="0.79" stop-color="#0c2dd0"/><stop offset="1" stop-color="#0000c1"/></linearGradient><linearGradient id="linear-gradient-5" x1="55.03" y1="440.29" x2="128.54" y2="263.63" gradientUnits="userSpaceOnUse"><stop offset="0" stop-color="#0053ff"/><stop offset="1" stop-color="#a3c9ff"/></linearGradient><linearGradient id="linear-gradient-6" x1="173.7" y1="442.74" x2="208.21" y2="359.82" xlink:href="#linear-gradient-5"/><linearGradient id="linear-gradient-7" x1="286.36" y1="475.63" x2="346.45" y2="331.22" xlink:href="#linear-gradient-5"/><linearGradient id="linear-gradient-8" x1="318.77" y1="452.75" x2="398.24" y2="261.77" xlink:href="#linear-gradient-5"/><linearGradient id="linear-gradient-9" x1="329.67" y1="119.3" x2="374.91" y2="288.28" xlink:href="#linear-gradient-4"/><radialGradient id="radial-gradient" cx="473.74" cy="351.74" r="47.49" gradientTransform="matrix(1.63, -1.01, 0.76, 0.93, -819.81, 282.12)" gradientUnits="userSpaceOnUse"><stop offset="0" stop-color="#5fc7ff"/><stop offset="0.48" stop-color="#3166d8"/><stop offset="1" stop-color="#0000af"/></radialGradient></defs><g class="cls-1"><g id="Layer_1" data-name="Layer 1"><path class="cls-2" d="M265.33,490c-51.6-2.14-111.7-10.14-151-36.71-31.18-21.12-52.48-56.36-64.69-88.35-20.94-54.83-11.15-102,11.86-154.71,13.53-31,31.87-54,58.52-76.86,29.74-25.46,50.57-43.44,75.78-72.66,11.21-13,22.57-26.05,35.36-37.89l7.95-7.36L247,22.81c41,38,118.77,90.88,168.65,154l10.56,14.55c27.33,42.55,41.6,72,33.4,132.77l0,.57-.05.56C456.51,364.49,430,423,392.49,449.08,364.05,472.94,311.66,490,265.84,490Z"/><path class="cls-3" d="M242.65,460.53c-51.61-2.14-95.8-16.09-135.15-42.65-35-23.72-61.63-81.41-67.17-123.48l-.11-.77,0-.79c4-65.51,22.11-95.68,49.45-138.25l9.37-12.65C146.43,81.92,188,56.58,230.3,17.36L238.24,10l7.95,7.36c41,38,81.5,62.5,131.39,125.62l10.56,14.56c27.33,42.54,44.81,71.62,48.79,137.12l0,.57-.05.57c-3.09,39.23-29.62,97.73-67.11,123.81-28.44,23.87-80.83,40.92-126.66,40.92Z"/><path class="cls-4" d="M238.24,125.85V23.79c-47.46,44-89.69,72.12-129.64,122.69l72.88,32.77Z"/><path class="cls-5" d="M181.48,179.25,131,284.84l-79.9,8.49c4.21-69.17,26.09-97.44,57.47-146.85Z"/><path class="cls-6" d="M131,284.84l22.42,75.25L114.2,410.45C82,388.6,56.37,333.15,51.13,293.33Z"/><path class="cls-7" d="M153.45,360.09,114.2,410.45c41.35,27.92,84.8,38.84,129,40.66V395.28Z"/><path class="cls-8" d="M238.24,125.85V23.79c47.48,44,90.41,73.94,130.35,124.51l-72.86,32.77Z"/><path class="cls-5" d="M295.73,181.07l50.44,105.59,79.89,8.5C421.86,226,400,197.7,368.59,148.3Z"/><path class="cls-6" d="M346.17,286.66l-22.43,75.25L363,412.28c35.74-24.88,60.25-81.32,63.06-117.12Z"/><path class="cls-7" d="M323.74,361.91,363,412.28c-28.38,23.74-79.21,38.83-119.85,38.83l-.35-60.68Z"/><polygon class="cls-9" points="238.95 125.85 181.48 179.25 131.03 284.84 153.45 360.09 241.76 395.28 323.74 361.91 346.17 286.66 296.41 179.25 238.95 125.85"/><path class="cls-10" d="M238.24,23.79,239,125.85l57.46,53.4,72.18-30.95C298.65,171.3,260.83,129,238.24,23.79Z"/><g class="cls-11"><path class="cls-12" d="M238.24,23.79V125.85l-56.76,53.4L108.6,146.48C193.92,163.19,196.83,143.17,238.24,23.79Z"/></g><path class="cls-13" d="M51.13,293.33l79.9-8.49,50.45-105.59L108.6,146.48C213.24,217.26,69.2,280,51.13,293.33Z"/><g class="cls-14"><path class="cls-15" d="M51.13,293.33l79.9-8.49,22.42,75.25L114.2,410.45C130.65,350.09,151,287.55,51.13,293.33Z"/></g><g class="cls-14"><path class="cls-16" d="M153.45,360.09,114.2,410.45c38.91,23.53,81.22,38.77,129,40.66C188.38,429.2,163,397.33,153.45,360.09Z"/></g><g class="cls-14"><path class="cls-17" d="M323.74,361.91,363,412.28c-35.95,26.41-74.6,32.75-117.24,40.1C288.89,438.31,331.1,397.52,323.74,361.91Z"/></g><g class="cls-14"><path class="cls-18" d="M323.74,361.91,363,412.28C341,343.42,343.85,291.84,426.06,295.16l-79.89-8.5Z"/></g><path class="cls-19" d="M368.59,148.3l-72.18,30.95,49.76,107.41,79.89,8.5C307.93,219.34,335.4,168.61,368.59,148.3Z"/><polygon class="cls-20" points="238.24 125.85 181.48 179.25 131.03 284.84 332.4 334.71 238.24 125.85"/><polygon class="cls-21" points="312.01 214.63 131.03 284.84 153.45 360.09 241.76 395.28 312.01 214.63"/><g class="cls-22"><path class="cls-23" d="M238.23,23.79c1.47,0,2.64,7,2.64,40.77s-1.17,61.29-2.64,61.29-2.62-27.53-2.62-61.29S236.79,23.79,238.23,23.79Z"/></g><g class="cls-22"><path class="cls-23" d="M181.49,179.25c-.54-.42,5.34-6.79,15.26-16.74l17.63-17.3,23.88-22.75,1.37,1.32L262.8,146.3,280.44,164c9.94,10.16,15.83,16.67,15.28,17.09s-7.4-5.33-18-14.94l-18.48-17-21-19.88h0L217.93,148l-18.46,16.64C188.85,174.07,182,179.68,181.49,179.25Z"/></g><g class="cls-22"><path class="cls-23" d="M108.6,146.49c.67-1.13,17.59,5.33,37.65,14.36s35.9,17.28,35.23,18.4-17.58-5.34-37.65-14.37S107.94,147.6,108.6,146.49Z"/></g><g class="cls-22"><path class="cls-23" d="M368.58,148.3c.68,1.12-15.15,9.38-35.21,18.4s-37,15.49-37.65,14.36,15.16-9.37,35.23-18.39S367.92,147.19,368.58,148.3Z"/></g><g class="cls-22"><path class="cls-24" d="M51.13,293.34c-.18-1.26,17.62-4.17,39.63-6.51s40.09-3.24,40.27-2S113.4,289,91.4,291.34,51.31,294.58,51.13,293.34Z"/></g><g class="cls-22"><path class="cls-24" d="M426.06,295.15c-.17,1.26-18.26.36-40.27-2s-39.8-5.26-39.62-6.52,18.26-.34,40.27,2S426.24,293.91,426.06,295.15Z"/></g><path class="cls-25" d="M243.16,451.11c-1.09,0-2.29-12.5-2.68-27.88s.19-27.93,1.29-28,2.27,12.5,2.66,27.88S244.24,451.09,243.16,451.11Z"/><path class="cls-25" d="M363,412.27c-.91.54-10.47-10.35-21.28-24.22s-18.89-25.61-18-26.14S334.2,372.27,345,386.14,363.9,411.75,363,412.27Z"/><path class="cls-25" d="M114.21,410.46c-.91-.54,7.17-12.28,18-26.15s20.36-24.75,21.27-24.22-7.19,12.26-18,26.14S115.1,411,114.21,410.46Z"/><g class="cls-22"><path class="cls-26" d="M181.92,181.66c.61.22-3.84,10.61-12.21,28.78l-15.36,32.8-20,41.82,22.26,72.72,84.84,33.63.25.1,78.79-31.9,22.26-72.75L323,244.08l-15.2-33.55c-8.29-18.6-12.7-29.24-12.08-29.47s6.16,10,15.47,28.25l16.61,33.06,21.73,44.08L327,364.21l-85.18,34.84-3.58-1.43L150.26,362.4l-22.59-77.78,22-43.13,16.74-32.28C175.74,191.4,181.32,181.44,181.92,181.66Z"/></g><path class="cls-27" d="M90.39,385.34c.27-.15,3,3.35,8.42,9.25A142.23,142.23,0,0,0,125,416.84c12.3,8.15,28.71,15.84,48.18,21.35s41.77,9.11,65.34,10.88l4.41.32c.89,0,2.77-.18,4.09-.26,2.91-.18,5.79-.47,8.65-.72,5.72-.55,11.33-1.26,16.83-2.07a259.31,259.31,0,0,0,31.16-6.67,186.14,186.14,0,0,0,48.43-21,156.06,156.06,0,0,0,27.15-21.44c5.75-5.68,8.62-9.08,8.89-8.92s-2.27,3.77-7.71,9.77a138.29,138.29,0,0,1-26.67,22.53c-24.92,16.81-67.1,31.39-115.58,31.9-23.8-1.8-46.41-5.45-66.14-11.3s-36.42-13.87-48.74-22.44a127.26,127.26,0,0,1-25.72-23.35C92.46,389.19,90.2,385.44,90.39,385.34Z"/><path class="cls-28" d="M306.7,89.12c10.64,12.49,20.23,26.1,22.56,38.15,4.61,23.74-26.68,46.41-48,59.61-45.06,27.87-129.74,43.21-156.35-8.42-20-38.79,20.24-64.24,44.93-92.48,10.95-12.51,44.66-40.28,64.91-42.66,19.22-2.26,38.34,9.58,48.21,20.07C289.58,70.45,298.46,79.45,306.7,89.12Z"/><path class="cls-29" d="M222.6,166.05c7.43,2.81,27,1.66,27.86-7.67,1.07-12-19.56-6.37-26.16-4.23C216.7,156.63,214.45,163,222.6,166.05Z"/><path class="cls-29" d="M276,181.53c2-3.55.89-8.53-2.11-12a11.33,11.33,0,0,0-8.51-4.16C248.12,165.16,266.1,199.31,276,181.53Z"/></g></g></svg>