<svg xmlns="http://www.w3.org/2000/svg" xmlns:xlink="http://www.w3.org/1999/xlink" viewBox="0 0 500 500"><defs><style>.cls-1{isolation:isolate;}.cls-14,.cls-2{opacity:0.5;}.cls-3{fill:#230c00;stroke:#230c00;stroke-miterlimit:10;stroke-width:3px;}.cls-4{fill:url(#linear-gradient);}.cls-5{fill:url(#linear-gradient-2);}.cls-6{fill:url(#linear-gradient-3);}.cls-7{fill:url(#linear-gradient-4);}.cls-8{fill:url(#linear-gradient-5);}.cls-9{fill:url(#linear-gradient-6);}.cls-10{fill:url(#linear-gradient-7);}.cls-11{fill:url(#linear-gradient-8);}.cls-12{opacity:0.43;}.cls-13{fill:#ffecbc;}.cls-14,.cls-22,.cls-23{mix-blend-mode:screen;}.cls-15{fill:url(#linear-gradient-9);}.cls-16,.cls-20{opacity:0.31;}.cls-16{mix-blend-mode:multiply;}.cls-17{fill:url(#linear-gradient-10);}.cls-18{fill:url(#linear-gradient-11);}.cls-19{fill:url(#linear-gradient-12);}.cls-20,.cls-21{mix-blend-mode:overlay;}.cls-22{fill:#f7e96e;}.cls-23{fill:url(#radial-gradient);}.cls-24{fill:url(#linear-gradient-13);}.cls-25{fill:url(#linear-gradient-14);}.cls-26{fill:#ffcf01;}.cls-27{fill:#f6801e;}.cls-28{fill:#e83a39;}</style><linearGradient id="linear-gradient" x1="447" y1="215.43" x2="-21.32" y2="273.97" gradientUnits="userSpaceOnUse"><stop offset="0" stop-color="#b80b50"/><stop offset="0.41" stop-color="#d02245"/><stop offset="1" stop-color="#ef4136"/></linearGradient><linearGradient id="linear-gradient-2" x1="242.52" y1="403.25" x2="242.52" y2="102.53" gradientUnits="userSpaceOnUse"><stop offset="0" stop-color="#f6801e"/><stop offset="0.17" stop-color="#f6962f"/><stop offset="0.54" stop-color="#f7c351"/><stop offset="0.83" stop-color="#f7df66"/><stop offset="1" stop-color="#f7e96e"/></linearGradient><linearGradient id="linear-gradient-3" x1="93.16" y1="250.38" x2="170.68" y2="37.27" xlink:href="#linear-gradient-2"/><linearGradient id="linear-gradient-4" x1="444.12" y1="171.11" x2="190.54" y2="66.18" gradientUnits="userSpaceOnUse"><stop offset="0" stop-color="#f6801e"/><stop offset="1" stop-color="#f7e96e"/></linearGradient><linearGradient id="linear-gradient-5" x1="98.9" y1="155.18" x2="72.54" y2="414.58" gradientUnits="userSpaceOnUse"><stop offset="0" stop-color="#f9ec31"/><stop offset="0.62" stop-color="#ef4136"/><stop offset="1" stop-color="#b80b50"/></linearGradient><linearGradient id="linear-gradient-6" x1="-1047.39" y1="155.13" x2="-1073.78" y2="414.85" gradientTransform="matrix(-1, 0, 0, 1, -667.66, 0)" xlink:href="#linear-gradient-5"/><linearGradient id="linear-gradient-7" x1="302.54" y1="402.86" x2="392.62" y2="414.48" gradientUnits="userSpaceOnUse"><stop offset="0" stop-color="#b80b50"/><stop offset="0.27" stop-color="#c1144c"/><stop offset="0.7" stop-color="#da2d40"/><stop offset="1" stop-color="#ef4136"/></linearGradient><linearGradient id="linear-gradient-8" x1="172.85" y1="403.25" x2="79.87" y2="414.88" xlink:href="#linear-gradient"/><linearGradient id="linear-gradient-9" x1="23.64" y1="117.82" x2="239.2" y2="117.82" gradientUnits="userSpaceOnUse"><stop offset="0" stop-color="#f7e96e"/><stop offset="0.12" stop-color="#e5d867"/><stop offset="0.36" stop-color="#b6ab56"/><stop offset="0.7" stop-color="#6c653b"/><stop offset="1" stop-color="#231f20"/></linearGradient><linearGradient id="linear-gradient-10" x1="34.29" y1="346.7" x2="109.13" y2="228.86" gradientUnits="userSpaceOnUse"><stop offset="0" stop-color="#b80b50"/><stop offset="1" stop-color="#fff"/></linearGradient><linearGradient id="linear-gradient-11" x1="229.84" y1="461.5" x2="255.08" y2="415.74" gradientUnits="userSpaceOnUse"><stop offset="0" stop-color="#730732"/><stop offset="1" stop-color="#fff"/></linearGradient><linearGradient id="linear-gradient-12" x1="359.91" y1="356.26" x2="464.06" y2="192.27" xlink:href="#linear-gradient-10"/><radialGradient id="radial-gradient" cx="408.21" cy="188.01" r="48.97" gradientTransform="matrix(1.26, -0.9, 0.69, 0.97, -409.86, 294.13)" gradientUnits="userSpaceOnUse"><stop offset="0" stop-color="#ffecbc"/><stop offset="0.55" stop-color="#7b6f5b"/><stop offset="1" stop-color="#130c0e"/></radialGradient><linearGradient id="linear-gradient-13" x1="128.23" y1="411.78" x2="148.71" y2="374.65" xlink:href="#linear-gradient-11"/><linearGradient id="linear-gradient-14" x1="334.01" y1="421.82" x2="365.62" y2="364.51" gradientUnits="userSpaceOnUse"><stop offset="0" stop-color="#fff"/><stop offset="1" stop-color="#730732"/></linearGradient></defs><g class="cls-1"><g id="Layer_1" data-name="Layer 1"><polygon class="cls-2" points="149.38 489.73 84.27 439.14 26.62 213.73 239.52 10.69 248.61 17.54 486.45 189.7 409.53 439.43 350.24 485.46 343.8 490 149.38 489.73"/><polygon class="cls-3" points="147.11 459.22 82 408.63 13.55 183.22 238.91 10 248 16.85 455.98 176.5 465.02 182.99 463.32 189 396.46 408.92 337.17 454.95 330.72 459.49 147.11 459.22"/><polygon class="cls-4" points="454.98 186.46 454.77 186.55 239.28 21.14 239.28 20.94 23.64 186.46 89.54 403.46 150.01 450.68 150.01 450.7 328.45 450.7 328.45 450.68 388.92 403.73 454.98 186.46"/><polygon class="cls-5" points="238.53 95.73 81.35 216.46 142.86 402.11 338.75 405.52 403.68 206.21 238.53 95.73"/><polygon class="cls-6" points="239.28 20.94 239.28 103.7 86.67 214.56 23.64 186.46 239.28 20.94"/><polygon class="cls-7" points="239.2 21.08 239.2 103.84 391.82 214.71 454.83 186.6 239.2 21.08"/><polygon class="cls-8" points="23.64 186.46 86.67 214.56 146.66 394.52 89.54 403.46 23.64 186.46"/><polygon class="cls-9" points="454.98 186.46 391.96 214.56 331.98 394.52 388.92 403.73 454.98 186.46"/><polygon class="cls-10" points="342.25 363.5 304.11 394.56 328.45 450.68 388.92 403.73 342.25 363.5"/><polygon class="cls-11" points="136.21 363.23 174.08 394.65 150.04 450.7 89.54 403.46 136.21 363.23"/><g class="cls-12"><path class="cls-13" d="M239.2,21.08v82.76L392,214.56l45.49-20.28C347.09,208.2,256,69.24,239.2,21.08Z"/></g><g class="cls-14"><path class="cls-15" d="M239.2,21.08v82.76L86.67,214.56l-63-28.1C71.08,197.86,149.88,163.81,239.2,21.08Z"/></g><g class="cls-16"><path class="cls-17" d="M23.64,186.46l63,28.1,49.54,148.67L89.63,402.92C102.62,294.84,99.86,249.74,23.64,186.46Z"/></g><g class="cls-16"><path class="cls-18" d="M150,450.64l24-56c36.69,24.77,45.16,42.37,154.39,56Z"/></g><g class="cls-16"><path class="cls-19" d="M392,214.56,342.25,362.24l45.68,41.13c-8.05-91-17-172.49,67.05-216.91Z"/></g><g class="cls-20"><polygon class="cls-13" points="86.67 214.56 239.2 103.84 252.56 392.7 86.67 214.56"/></g><g class="cls-20"><polygon class="cls-13" points="86.67 214.56 146.66 394.52 372.16 265.14 86.67 214.56"/></g><g class="cls-21"><path class="cls-13" d="M239.19,21.08c1.27,0,2.35,19,2.42,42.4s-.89,42.41-2.16,42.41-2.33-19-2.4-42.4S238,21.09,239.19,21.08Z"/></g><path class="cls-22" d="M271.18,131.5c-18.77-4-24.12,23.33-3.75,22,6.57-.42,12.73-4.26,13.45-11.37.77-7.8-5.59-9.82-12-11.42Z"/><path class="cls-22" d="M293.82,157.29c-4.33,9.53,11.59,17.91,15.33,8.57C312.33,157.92,298.24,147.58,293.82,157.29Z"/><path class="cls-23" d="M304.29,75.69c5.85,4.29,11.72,8.84,16,14,20.62,25.25-11.4,63.7-29.56,76.67-33.94,24.26-87.3,37.67-125.5,5.78C115.48,130.66,147.07,94,182.59,67.49c12-9,42.41-45.5,57-45.64,12.31-.11,42.29,36.36,54.25,46C297,70.43,300.65,73,304.29,75.69Z"/><g class="cls-16"><path class="cls-24" d="M89.54,403.46l46.67-40.23,37.87,31.42L150,450.7C144,412,148,356.9,89.54,403.46Z"/></g><g class="cls-16"><path class="cls-25" d="M328.45,450.68l-24.34-56.12,38.14-31.06,46.67,40.23C355.72,375.05,333.41,383.39,328.45,450.68Z"/></g><g class="cls-21"><path class="cls-26" d="M86.66,214.57c.65-.22,6.34,14.82,15.59,40.86l16.34,46.77,20.28,59.21,36.4,29.93,64-.1,63.66.09,36.66-29.66,20.35-59.31,16.4-46.85c9.27-26.09,15-41.16,15.63-40.94s-3.85,15.69-12.11,42.12l-15,47.3-19.92,61.34L305.29,398l-66,.1-66.39-.1-39.33-32.92L113.7,303.83l-15-47.22C90.49,230.23,86,214.78,86.66,214.57Z"/></g><g class="cls-21"><path class="cls-26" d="M455,186.45c.52,1.16-13.26,8.44-30.65,16.21s-32,13.19-32.52,12,13.27-8.41,30.66-16.2S454.47,185.32,455,186.45Z"/></g><g class="cls-21"><path class="cls-26" d="M23.64,186.47c.52-1.16,15.09,4.22,32.44,12s31.1,15,30.58,16.14-15.08-4.24-32.43-12S23.13,187.61,23.64,186.47Z"/></g><g class="cls-21"><path class="cls-13" d="M86.67,214.57c-.37-.52,16.42-13,43.8-32.81l48.18-34.52,60.45-42.77.26.18,60.37,42.7L348,181.88c27.4,19.79,44.21,32.31,43.84,32.83s-17.82-11.08-45.7-30.19l-48.79-33.74L239.1,110l-58,40.63-48.74,33.72C104.47,203.49,87,215.08,86.67,214.57Z"/></g><path class="cls-27" d="M89.55,403.47c-.63-.72,9.53-10.71,22.6-22.26s24.26-20.4,24.89-19.69-9.54,10.69-22.62,22.25S90.16,404.17,89.55,403.47Z"/><path class="cls-27" d="M150.05,450.71c-.88-.38,4.15-13.95,11.17-30.21s13.45-29.21,14.32-28.83-4.16,13.93-11.18,30.19S150.9,451.08,150.05,450.71Z"/><path class="cls-27" d="M328.46,450.68c-.87.37-7.21-12.5-14.11-28.66s-11.82-29.63-11-30,7.19,12.51,14.09,28.66S329.31,450.31,328.46,450.68Z"/><path class="cls-27" d="M388.93,403.72c-.63.72-11.62-8-24.48-19.46s-22.82-21.32-22.19-22,11.61,8.06,24.46,19.48S389.55,403,388.93,403.72Z"/><path class="cls-28" d="M55.66,290.68c.28-.08,3.91,11,10,30.65l25.05,81.3L150.58,449l75-.06,102.34.12L387.82,403l19.12-62.87c4.65-15,7.36-23.35,7.6-23.27s-2,8.54-6.24,23.67l-18.27,64-61,47.77-103.42.13-76.12-.07-61.13-48-24.15-82.5C58.48,302,55.38,290.76,55.66,290.68Z"/></g></g></svg>