<svg xmlns="http://www.w3.org/2000/svg" xmlns:xlink="http://www.w3.org/1999/xlink" viewBox="0 0 146.958 147.017"><defs><style>.cls-1{isolation:isolate;}.cls-2{fill:#6c3d1b;}.cls-11,.cls-3,.cls-9{fill:#a15e2e;}.cls-4{fill:#bd743b;}.cls-5{fill:url(#linear-gradient);}.cls-6{fill:#fff;}.cls-7{opacity:0.56;}.cls-8{fill:#f8ee73;}.cls-15,.cls-8{opacity:0.41;}.cls-9{opacity:0.43;mix-blend-mode:multiply;}.cls-10,.cls-15{fill:#f8eed6;mix-blend-mode:overlay;}.cls-11{opacity:0.51;}.cls-12{fill:#fced84;}.cls-13{fill:#f1d563;}.cls-14{fill:#edcf61;}</style><linearGradient id="linear-gradient" x1="63.638" y1="-2.522" x2="84.25" y2="155.608" gradientUnits="userSpaceOnUse"><stop offset="0" stop-color="#f5e268"/><stop offset="1" stop-color="#cb8241"/></linearGradient></defs><g class="cls-1"><g id="text"><path class="cls-2" d="M146.206,78.734s-.457-3.924-.535-4.031.661-4.736.661-4.736l.573-.478a73.518,73.518,0,1,0-.184,10.572ZM73.51,126.9a53.371,53.371,0,1,1,53.371-53.371A53.431,53.431,0,0,1,73.51,126.9Z"/><path class="cls-3" d="M144.768,73.791c-.077-.106.659-4.718.659-4.718L146,68.6a72.607,72.607,0,1,0-.184,10.525l-.511-1.317S144.846,73.9,144.768,73.791ZM73.51,127.548a54.02,54.02,0,1,1,26.664-100.99c.327.187.648.382.97.575.484-.141,2.421-.709,3.568.111s.573,2.239.727,2.743A54,54,0,0,1,73.51,127.548Z"/><path class="cls-4" d="M127.442,52.784A51.077,51.077,0,0,1,125.9,60.42a54,54,0,0,1-96.7,44.014q-3.555-1-6.939-2.278A58.221,58.221,0,0,0,127.442,52.784Z"/><path class="cls-5" d="M73.51,3.582a69.631,69.631,0,1,0,69.631,69.631A69.71,69.71,0,0,0,73.51,3.582Zm0,127.86a57.914,57.914,0,1,1,57.914-57.914A57.979,57.979,0,0,1,73.51,131.442Z"/><path class="cls-6" d="M73.305,5.167c38.18,0,69.312,31.623,69.975,70.751.007-.425.016-.849.016-1.274,0-39.714-31.4-72.025-69.991-72.025S3.314,34.93,3.314,74.644c0,.425.009.849.016,1.274C3.993,36.79,35.125,5.167,73.305,5.167Z"/><path class="cls-6" d="M73.51,133.982A56.855,56.855,0,0,0,130.3,77.192c0-.426-.007-.85-.016-1.274a56.789,56.789,0,0,1-113.55,0c-.009.424-.016.848-.016,1.274A56.855,56.855,0,0,0,73.51,133.982Z"/><g class="cls-7"><path class="cls-3" d="M73.51,13.144A57.98,57.98,0,0,0,15.6,71.058c0,.42.006.838.015,1.256a57.912,57.912,0,0,1,115.8,0c.009-.418.016-.836.016-1.256A57.98,57.98,0,0,0,73.51,13.144Z"/><path class="cls-3" d="M73.51,144.506A73.529,73.529,0,0,1,.078,72.314c-.007.418-.016.836-.016,1.255a73.448,73.448,0,0,0,146.9,0c0-.419-.009-.837-.015-1.255A73.531,73.531,0,0,1,73.51,144.506Z"/></g><path class="cls-8" d="M16.43,73.94A56.931,56.931,0,0,1,126.3,53a71.37,71.37,0,0,0,1.221-26.744A72.165,72.165,0,0,0,1.161,73.94c0,2.089.094,4.156.269,6.2A71.308,71.308,0,0,0,21.667,97.775,56.6,56.6,0,0,1,16.43,73.94Z"/><path class="cls-9" d="M114.094,124.821a45.092,45.092,0,0,1-5.71,3.771c-1.963,1.117-3.976,2.133-6.026,3.069s-4.137,1.783-6.271,2.53a44.432,44.432,0,0,1-6.595,1.822,44.591,44.591,0,0,1,5.7-3.777c1.968-1.116,3.982-2.131,6.03-3.065s4.142-1.78,6.275-2.526A45.031,45.031,0,0,1,114.094,124.821Z"/><path class="cls-10" d="M114.775,124.233s-8.6,6.268-15.03,8.567a81.77,81.77,0,0,1-10.819,3.125,53.44,53.44,0,0,0,12.405-2.524C106.871,131.373,114.775,124.233,114.775,124.233Z"/><path class="cls-9" d="M108.614,127.72s-8.691,3.274-9.987,3.824-6.059,2.956-6.059,2.956S102.361,132.751,108.614,127.72Z"/><path class="cls-11" d="M64.294,6.091A45.046,45.046,0,0,1,58.32,9.427c-2.041.968-4.125,1.83-6.238,2.612s-4.258,1.469-6.442,2.055a44.579,44.579,0,0,1-6.712,1.327A44.5,44.5,0,0,1,44.9,12.079c2.046-.967,4.129-1.83,6.241-2.608S55.4,8,57.582,7.419A45.057,45.057,0,0,1,64.294,6.091Z"/><path class="cls-10" d="M65.017,5.555s-9.042,5.611-15.625,7.425A81.632,81.632,0,0,1,38.37,15.29,53.427,53.427,0,0,0,50.929,13.7C56.6,12.088,65.017,5.555,65.017,5.555Z"/><path class="cls-11" d="M58.615,8.575S49.7,11.192,48.37,11.644s-6.262,2.5-6.262,2.5S52,13.126,58.615,8.575Z"/><path class="cls-3" d="M14.389,113.746s3.994-3.819,1.775-8.624S9.217,103.3,9.217,103.3Z"/><path class="cls-12" d="M15.188,104.843c.624,2.592-2.158,5.495-2.158,5.495a7.634,7.634,0,0,0,.792,1.35c.5.664,1.205,1.774,1.205,1.774A7.343,7.343,0,0,0,16.7,106.04a4.765,4.765,0,0,0-2.3-3.092A16.676,16.676,0,0,1,15.188,104.843Z"/><path class="cls-2" d="M6.44,103.116s3.671-.319,4.274-.474,2.432-1.23,4.994,1.322a5.227,5.227,0,0,1,1.305,3.151s-1.987-3.515-4.648-3.4c-3.776.158-2.086,3.84-1.842,6.49.176,1.92-1.812-2.136-1.812-2.136Z"/><path class="cls-2" d="M142.209,72.109,138.6,75.093l-2.232,1.2s1.65-.558,2.271-.727,2.449-1.068,2.874-.68.493,2.651.737,2.189S142.209,72.109,142.209,72.109Z"/><path class="cls-13" d="M138.641,75.568l-2.312.905s2.206-.492,2.321-.528a18.365,18.365,0,0,0,2.632-1.147A16.725,16.725,0,0,0,138.641,75.568Z"/><path class="cls-3" d="M145.6,65.429s-6.6,8.438-6.865,8.69S136.37,76.3,136.37,76.3l2.232-1.2L146.13,70Z"/><path class="cls-3" d="M92.26,19.279S91.8,12.024,88.141,10.8s-4.833,5.023-4.833,5.023Z"/><path class="cls-14" d="M87.505,11.173c1.686.966,2.969,6.917,2.969,6.917l2.581.958s-1.606-7.314-4.157-8.079a3.939,3.939,0,0,0-2.44-.213A7.318,7.318,0,0,1,87.505,11.173Z"/><path class="cls-2" d="M80.882,20.478s2.183-6.716,2.995-8.122a3.571,3.571,0,0,1,3.158-1.787c2.3.065,2.893,1.089,2.893,1.089s-3.1-.681-4.436.441c-2.232,1.879.941,3.019,1.332,4.368a21.6,21.6,0,0,1,.11,4.939Z"/><path class="cls-2" d="M145.819,74.7c-.074-.1.55-4.057.667-4.792-1.335.769-4.246,2.72-4.246,2.72l.012,4.445,4.092,1.556C146.239,77.744,145.888,74.8,145.819,74.7Z"/><path class="cls-2" d="M35.814,112.183l.174,10.243-1,5.458s1.3-3.582,1.858-4.874,1.53-5.644,2.769-5.839,5.2,2.781,4.752,1.731S35.814,112.183,35.814,112.183Z"/><path class="cls-6" d="M36.846,123.01,35.233,128.2s2.177-4.441,2.274-4.689,1.852-5.737,1.634-6.066S36.846,123.01,36.846,123.01Z"/><path class="cls-4" d="M34.331,110.718s.1,9.352.172,10.147.485,7.019.485,7.019l1-5.458.461-9.743Z"/><polygon class="cls-2" points="19.658 53.678 22.388 56.053 18.428 55.607 5.676 48.548 19.658 53.678"/><polygon class="cls-15" points="4.762 48.319 18.428 55.851 22.388 56.377 18.098 56.977 4.762 48.319"/><polygon class="cls-11" points="19.272 54.172 22.388 56.377 19.599 51.562 5.676 48.548 19.272 54.172"/></g></g></svg>