<svg id="Layer_1" data-name="Layer 1" xmlns="http://www.w3.org/2000/svg" viewBox="0 0 40 50"><defs><style>.cls-1{fill:#522207;}.cls-2{fill:#d6701f;}.cls-3{fill:#993f0e;}.cls-4{fill:#ffc425;}.cls-5{fill:#fbeaa9;}.cls-6{fill:#f59040;}</style></defs><path class="cls-1" d="M9.08.08c-3.4,0-5.15,3.54-6.82,6.77C-.65,12.47-.26,36.16.74,38.75S2.43,48.78,7.21,50c8,.62,32-20.38,32-25.63C39.26,17.61,17.69.14,9.08.08Z"/><path class="cls-2" d="M9.08.08C4.68,1,4.39,11.64,4.24,18c.73,2,12.21,2.51,12.21,2.51S5.27,21.93,4.24,23.63,4,39.92,4.83,41.94s8.64.25,8.64.25S7,46.74,8,48s27.79-9.76,32-23.39C39.77,14.77,15.52-1.24,9.08.08Z"/><path class="cls-3" d="M12.07,8.28c-2.29.2-2.83,14.87-2.72,17.35s.14,14.6,1.87,15.25,22.11-9.52,23-17C32.84,19.74,21.77,7.47,12.07,8.28Z"/><path class="cls-4" d="M13.07,13.08c-1.87.16-2.3,12.08-2.21,14.1S11,39.05,12.38,39.57s18-7.73,18.67-13.82C29.94,22.39,21,12.42,13.07,13.08Z"/><path class="cls-5" d="M13.07,12.62c1.88-.81,7.48,1.81,10.71,4.78s5.21,4.82,5.59,5.66-.68-1.26-4.3-3.77-7.84-4.1-9.71-3.95S12,22,12,24.46s-.9,2.49-1-1.38S10.94,13.54,13.07,12.62Z"/><path class="cls-3" d="M23,35.3c-7.64,1.82-12.36-7.39-6.73-13.68s12.25,2.23,8.74,6.79-8.43-3-5.12-3.59-.51,4,2.3,3.79,4.31-6.86-.75-8.19-6.88,5.46-6,8.9,9.9,5.11,14.62.35A66,66,0,0,1,23,35.3Z"/><path class="cls-5" d="M21.32,20.58c-3.78-.81-5.7,3.32-5.56,6.45s1.36,5,5.56,5.4c-3.25-.51-7-4.53-4-8.86s6.4-1.68,6.93.2C24.27,21.49,22,20.67,21.32,20.58Z"/><path class="cls-6" d="M8.62.21c-2.48.84-4,7.37-4.18,12.46s.27,3.43,1-1.27,1.64-9.68,5-9.52,9.25,2.3,12.29,4.17.18-.86-4.09-3.1S10.61-.46,8.62.21Z"/></svg>