<svg id="Layer_1" data-name="Layer 1" xmlns="http://www.w3.org/2000/svg" viewBox="0 0 40 50"><defs><style>.cls-1{fill:#522207;}.cls-2{fill:#d6701f;}.cls-3{fill:#993f0e;}.cls-4{fill:#ffc425;}.cls-5{fill:#fbeaa9;}.cls-6{fill:#f59040;}</style></defs><path class="cls-1" d="M30.92.08c3.4,0,5.15,3.54,6.82,6.77,2.91,5.62,2.52,29.31,1.52,31.9s-1.69,10-6.47,11.24c-8,.62-32-20.38-32-25.63C.74,17.61,22.31.14,30.92.08Z"/><path class="cls-2" d="M30.92.08c4.4.9,4.69,11.56,4.84,18-.73,2-12.21,2.51-12.21,2.51s11.18,1.38,12.21,3.08.3,16.29-.59,18.31-8.64.25-8.64.25S33,46.74,32,48,4.24,38.25,0,24.62C.23,14.77,24.48-1.24,30.92.08Z"/><path class="cls-3" d="M27.93,8.28c2.29.2,2.83,14.87,2.72,17.35s-.14,14.6-1.87,15.25-22.11-9.52-23-17C7.16,19.74,18.23,7.47,27.93,8.28Z"/><path class="cls-4" d="M26.93,13.08c1.87.16,2.3,12.08,2.21,14.1S29,39.05,27.62,39.57,9.65,31.84,9,25.75C10.06,22.39,19.05,12.42,26.93,13.08Z"/><path class="cls-5" d="M26.93,12.62c-1.88-.81-7.48,1.81-10.71,4.78S11,22.22,10.63,23.06s.68-1.26,4.3-3.77,7.84-4.1,9.72-3.95S28,22,28,24.46s.89,2.49,1-1.38S29.06,13.54,26.93,12.62Z"/><path class="cls-3" d="M17,35.3c7.64,1.82,12.36-7.39,6.73-13.68S11.44,23.85,15,28.41s8.43-3,5.12-3.59.51,4-2.3,3.79-4.31-6.86.75-8.19,6.88,5.46,6,8.9-9.9,5.11-14.62.35A66,66,0,0,0,17,35.3Z"/><path class="cls-5" d="M18.68,20.58c3.78-.81,5.7,3.32,5.56,6.45s-1.36,5-5.56,5.4c3.25-.51,7-4.53,4-8.86s-6.4-1.68-6.93.2C15.73,21.49,18,20.67,18.68,20.58Z"/><path class="cls-6" d="M31.38.21c2.47.84,4,7.37,4.18,12.46s-.27,3.43-1-1.27-1.64-9.68-5-9.52-9.25,2.3-12.29,4.17-.18-.86,4.09-3.1S29.39-.46,31.38.21Z"/></svg>